<svg xmlns="http://www.w3.org/2000/svg" width="28" height="28" viewBox="0 0 28 28"><defs><style>.a{fill:none;}.b{fill:#2a2929;stroke:#2a2929;stroke-width:0.5px;}</style></defs><g transform="translate(-1757 -170)"><rect class="a" width="28" height="28" transform="translate(1757 170)"/><g transform="translate(0 -1)"><g transform="translate(1778 82.703) rotate(90)"><g transform="translate(102.297 0)"><path class="b" d="M109.15,6.616l-6-6.465a.475.475,0,0,0-.707.013.569.569,0,0,0,0,.748L108.09,7l-5.647,6.084a.569.569,0,0,0,0,.762.475.475,0,0,0,.707,0l6-6.465A.569.569,0,0,0,109.15,6.616Z" transform="translate(-102.297 0)"/></g></g><g transform="translate(1778 75.703) rotate(90)"><g transform="translate(102.297 0)"><path class="b" d="M109.15,6.616l-6-6.465a.475.475,0,0,0-.707.013.569.569,0,0,0,0,.748L108.09,7l-5.647,6.084a.569.569,0,0,0,0,.762.475.475,0,0,0,.707,0l6-6.465A.569.569,0,0,0,109.15,6.616Z" transform="translate(-102.297 0)"/></g></g></g></g></svg>