<svg xmlns="http://www.w3.org/2000/svg" width="196.364" height="48" viewBox="0 0 196.364 48"><defs><style>.a{fill:#d4b86c;}</style></defs><g transform="translate(-315 -24)"><g transform="translate(315 24)"><path d="M7848.136,505.49h-3.319v18.4c0,6.4-4.114,11.2-10.238,11.2s-10.193-4.8-10.193-11.2v-18.4h-3.318v18.4c0,8.424,5.421,14.307,13.512,14.307,8.134,0,13.558-5.883,13.558-14.307Z" transform="translate(-7821.066 -490.199)"/><path class="a" d="M8660.124,172.44h46.866v48h-14.914v-3.251h11.646v-41.5h-41.965v6h-3.267V172.44Z" transform="translate(-8658.491 -172.44)"/></g><path d="M7795.924,549.08h-1.6v8.708c0,3.029-1.988,5.3-4.949,5.3s-4.928-2.271-4.928-5.3V549.08h-1.6v8.708c0,3.986,2.621,6.77,6.53,6.77,3.933,0,6.554-2.784,6.554-6.77Zm8.991,0v15.144h1.6v-4.989h3.546c3.664,0,6.08-2.049,6.08-5.145,0-3.006-2.348-5.011-5.874-5.011h-5.356Zm1.6,8.708v-7.261h3.684c2.621,0,4.361,1.426,4.361,3.563,0,2.2-1.74,3.7-4.361,3.7Zm17.487-8.708v15.144h1.6v-4.989h3.548c3.66,0,6.079-2.049,6.079-5.145,0-3.006-2.351-5.011-5.877-5.011Zm1.6,8.708v-7.261h3.685c2.621,0,4.36,1.426,4.36,3.563,0,2.2-1.739,3.7-4.36,3.7Zm24.9-9.02a7.885,7.885,0,1,0,8,7.884A7.93,7.93,0,0,0,7850.513,548.768Zm-.023,14.3a6.414,6.414,0,1,1,6.4-6.414A6.375,6.375,0,0,1,7850.489,563.066Zm21.985-4.343,4.815,5.5h2.011l-4.927-5.634c2.575-.49,4.249-2.205,4.249-4.677,0-2.984-2.4-4.833-5.854-4.833h-5.719v15.144h1.605v-5.5h3.818Zm-3.818-1.448v-6.748h4.067c2.509,0,4.295,1.269,4.295,3.385,0,2.093-1.785,3.363-4.295,3.363Zm29.286-6.748v-1.448H7884.9v1.448h5.718v13.7h1.6v-13.7h5.718Zm20.244-1.448h-1.605v8.708c0,3.028-1.989,5.3-4.948,5.3s-4.929-2.271-4.929-5.3v-8.708h-1.6v8.708c0,3.986,2.621,6.77,6.532,6.77,3.932,0,6.554-2.784,6.554-6.77Z" transform="translate(-7406.822 -492.558)"/></g></svg>