<svg xmlns="http://www.w3.org/2000/svg" width="340" height="204" viewBox="0 0 340 204"><defs><style>.a{fill:#fff;}</style></defs><g transform="translate(-69.447 -45)"><path class="a" d="M7815.709,628.911h-4.029v22.311c0,7.759-5,13.581-12.432,13.581s-12.381-5.82-12.381-13.581V628.911h-4.027v22.311c0,10.214,6.584,17.346,16.4,17.346,9.879,0,16.465-7.133,16.465-17.346ZM7959.049,505.49h-8.326v46.088c0,16.031-10.32,28.052-25.683,28.052s-25.566-12.022-25.566-28.052V505.49h-8.324v46.088c0,21.1,13.6,35.833,33.89,35.833,20.407,0,34.009-14.736,34.009-35.833ZM7838.294,628.911v38.8h4.032V654.931h8.914c9.2,0,15.269-5.249,15.269-13.182,0-7.7-5.9-12.838-14.756-12.838H7838.3Zm4.032,22.311v-18.6h9.255c6.584,0,10.955,3.653,10.955,9.13,0,5.649-4.371,9.474-10.955,9.474Zm43.93-22.311v38.8h4.033V654.931h8.914c9.195,0,15.271-5.249,15.271-13.182,0-7.7-5.9-12.838-14.764-12.838Zm4.033,22.311v-18.6h9.253c6.585,0,10.957,3.653,10.957,9.13,0,5.649-4.371,9.474-10.957,9.474Zm62.551-23.11a20.2,20.2,0,1,0,20.1,20.2A20.114,20.114,0,0,0,7952.84,628.112Zm-.059,36.634a16.438,16.438,0,1,1,16.067-16.434A16.182,16.182,0,0,1,7952.781,664.746Zm55.23-11.128,12.094,14.094h5.05l-12.375-14.436c6.471-1.256,10.671-5.65,10.671-11.983,0-7.646-6.016-12.382-14.7-12.382h-14.364v38.8h4.031V653.619h9.595Zm-9.595-3.71V632.619h10.219c6.3,0,10.787,3.252,10.787,8.673,0,5.364-4.484,8.616-10.787,8.616Zm73.568-17.289V628.91h-32.759v3.709h14.362v35.093h4.033V632.619h14.362Zm50.855-3.709h-4.031v22.311c0,7.759-5,13.58-12.432,13.58S8094,658.982,8094,651.221V628.91h-4.029v22.311c0,10.214,6.585,17.346,16.408,17.346,9.878,0,16.463-7.133,16.463-17.346Z" transform="translate(-7713.393 -419.568)"/><path class="a" d="M8662.617,172.44h118.42V294.32h-37.684v-8.256h29.428V180.694H8666.746v15.24h-8.256V172.44Z" transform="translate(-8480.31 -127.44)"/></g></svg>