<svg xmlns="http://www.w3.org/2000/svg" width="24" height="24" viewBox="0 0 24 24"><defs><style>.a{fill:none;}.b{fill:#fff;stroke:#fff;stroke-width:0.3px;}</style></defs><g transform="translate(-1157 -341)"><rect class="a" width="24" height="24" transform="translate(1157 341)"/><g transform="translate(1160 343.999)"><g transform="translate(0 0.001)"><g transform="translate(0 0)"><path class="b" d="M3.131,15.838a8.96,8.96,0,1,0-1.925-2.855A8.953,8.953,0,0,0,3.131,15.838ZM9.484,1.813A7.673,7.673,0,1,1,1.812,9.485,7.673,7.673,0,0,1,9.484,1.813Z" transform="translate(-0.484 -0.485)"/><path class="b" d="M9,18A9,9,0,0,1,5.5.709,9,9,0,0,1,12.5,17.293,8.945,8.945,0,0,1,9,18ZM9,.032A8.971,8.971,0,0,0,5.508,17.265,8.971,8.971,0,0,0,12.492.737,8.914,8.914,0,0,0,9,.032ZM9,16.689A7.688,7.688,0,0,1,3.564,3.565,7.688,7.688,0,0,1,14.436,14.438,7.638,7.638,0,0,1,9,16.689ZM9,1.343A7.658,7.658,0,0,0,3.585,14.416a7.658,7.658,0,1,0,10.83-10.83A7.608,7.608,0,0,0,9,1.343Z" transform="translate(0 -0.001)"/></g><g transform="translate(4.076 5.402)"><path class="b" d="M141.817,187.808a.678.678,0,0,0,.959,0L148.584,182a.678.678,0,0,0-.959-.959l-5.328,5.328-2.173-2.173a.678.678,0,0,0-.959.959Z" transform="translate(-138.951 -180.827)"/><path class="b" d="M141.822,187.537a.69.69,0,0,1-.491-.2l-2.652-2.652a.694.694,0,1,1,.982-.982l2.161,2.161,5.316-5.316a.694.694,0,1,1,.982.982l-5.807,5.807A.69.69,0,0,1,141.822,187.537Zm-2.652-4.009a.662.662,0,0,0-.468,1.131l2.652,2.652a.662.662,0,0,0,.937,0L148.1,181.5a.662.662,0,0,0-.937-.937l-5.339,5.339-2.184-2.184A.658.658,0,0,0,139.17,183.529Z" transform="translate(-138.477 -180.342)"/></g></g></g></g></svg>