<svg xmlns="http://www.w3.org/2000/svg" width="28.5" height="28.5" viewBox="0 0 28.5 28.5"><defs><style>.a{fill:#2a2929;stroke:#2a2929;stroke-width:0.5px;}</style></defs><g transform="translate(0.25 0.25)"><g transform="translate(0 0)"><path class="a" d="M0,25.048A2.956,2.956,0,0,0,2.952,28h22.1A2.956,2.956,0,0,0,28,25.048V2.952A2.956,2.956,0,0,0,25.048,0H2.952A2.956,2.956,0,0,0,0,2.952ZM25.048,26.6H2.952a1.555,1.555,0,0,1-1.55-1.55v-3.69l5.309-5.309,4.537,4.537a.7.7,0,0,0,.99,0l8.193-8.193L26.6,18.56v6.488A1.555,1.555,0,0,1,25.048,26.6ZM2.952,1.4h22.1a1.555,1.555,0,0,1,1.55,1.55V16.575L20.923,10.9a.7.7,0,0,0-.99,0L11.74,19.1,7.2,14.561a.7.7,0,0,0-.99,0L1.4,19.372V2.952A1.555,1.555,0,0,1,2.952,1.4Z" transform="translate(0 0)"/><path class="a" d="M93.057,78.814A3.657,3.657,0,1,0,89.4,75.157,3.661,3.661,0,0,0,93.057,78.814Zm0-5.876a2.219,2.219,0,1,1-2.219,2.219A2.221,2.221,0,0,1,93.057,72.938Z" transform="translate(-84.331 -67.169)"/></g></g></svg>