<svg xmlns="http://www.w3.org/2000/svg" width="32" height="32" viewBox="0 0 32 32"><path d="M8193,32h-32V0h32V32ZM8173.024,9.022a5.967,5.967,0,0,0-5.019,3.039c-2.015,3.5-.733,8.809,1.5,12.029,1.114,1.61,2.243,3.055,3.783,3.055h.088a4.643,4.643,0,0,0,1.744-.464l.012-.005a4.794,4.794,0,0,1,2.079-.493,4.511,4.511,0,0,1,1.978.476,4.226,4.226,0,0,0,1.821.456h.079c1.737-.033,2.8-1.59,3.745-2.963a13.194,13.194,0,0,0,1.645-3.366l.006-.023a.2.2,0,0,0-.1-.239l-.015-.006a4.988,4.988,0,0,1-3.021-4.563,5.139,5.139,0,0,1,2.422-4.289l.021-.012a.192.192,0,0,0,.086-.125.2.2,0,0,0-.031-.148,5.639,5.639,0,0,0-4.437-2.41c-.125-.012-.254-.019-.386-.019a7.7,7.7,0,0,0-2.784.695l-.006,0a4.473,4.473,0,0,1-1.329.4,4.344,4.344,0,0,1-1.375-.4l0,0-.005,0a6.667,6.667,0,0,0-2.427-.617Zm8.385-5.729h0a5.445,5.445,0,0,0-3.594,1.844,5.105,5.105,0,0,0-1.293,3.783.2.2,0,0,0,.181.171c.074.006.156.008.25.008a4.609,4.609,0,0,0,3.4-1.74,5.379,5.379,0,0,0,1.262-3.892.2.2,0,0,0-.2-.175Z" transform="translate(-8161 0)"/></svg>