<svg xmlns="http://www.w3.org/2000/svg" width="20" height="20" viewBox="0 0 20 20"><defs><style>.a{opacity:0.5;}.b{fill:none;}.c{fill:#2a2929;stroke:#fff;stroke-width:0.3px;}</style></defs><g class="a" transform="translate(16658 -1173)"><rect class="b" width="20" height="20" transform="translate(-16658 1173)"/><g transform="translate(-18419 995)"><g transform="translate(1778 82.703) rotate(90)"><g transform="translate(102.297 0)"><path class="c" d="M109.15,6.616l-6-6.465a.475.475,0,0,0-.707.013.569.569,0,0,0,0,.748L108.09,7l-5.647,6.084a.569.569,0,0,0,0,.762.475.475,0,0,0,.707,0l6-6.465A.569.569,0,0,0,109.15,6.616Z" transform="translate(-102.297 0)"/></g></g></g></g></svg>