<svg xmlns="http://www.w3.org/2000/svg" width="26.3" height="28.3" viewBox="0 0 26.3 28.3"><defs><style>.a{fill:#2a2929;stroke:#fff;stroke-width:0.3px;}</style></defs><g transform="translate(-20.119 0.15)"><path class="a" d="M26.189,28A5.958,5.958,0,0,1,22,26.307a5.69,5.69,0,0,1,0-8.175L35.29,5.162a4.1,4.1,0,0,1,5.687,0,3.863,3.863,0,0,1,0,5.551L31.2,20.253a1.012,1.012,0,0,1-1.407,0,.954.954,0,0,1,0-1.373L39.57,9.34a1.952,1.952,0,0,0,0-2.805,2.068,2.068,0,0,0-2.874,0L23.407,19.5a3.779,3.779,0,0,0,0,5.43,4,4,0,0,0,5.563,0l13.6-13.275a5.6,5.6,0,0,0,0-8.054,5.943,5.943,0,0,0-8.252,0L24.233,13.45a1.012,1.012,0,0,1-1.407,0,.954.954,0,0,1,0-1.373L32.913,2.233a7.97,7.97,0,0,1,11.065,0,7.507,7.507,0,0,1,0,10.8l-13.6,13.274A5.958,5.958,0,0,1,26.189,28Z" transform="translate(0)"/></g></svg>