<svg xmlns="http://www.w3.org/2000/svg" width="48" height="48" viewBox="0 0 48 48"><defs><style>.a{fill:none;}.b{fill:#707070;}</style></defs><g transform="translate(-1548 -26)"><rect class="a" width="48" height="48" transform="translate(1548 26)"/><g transform="translate(1515.803 35)"><g transform="translate(44.197)"><path class="b" d="M68.138,22.319a1.136,1.136,0,0,0-1.322-.936,1.17,1.17,0,0,0-.905,1.368,1.187,1.187,0,0,1-.242.967,1.105,1.105,0,0,1-.871.423H47.6a1.105,1.105,0,0,1-.871-.423,1.187,1.187,0,0,1-.242-.967,12.327,12.327,0,0,1,1.59-4.069,9.485,9.485,0,0,0,1.541-4.971V11.953a6.717,6.717,0,0,1,6.476-6.8H56.3a6.707,6.707,0,0,1,6.454,6.8v1.758A8.5,8.5,0,0,0,63.9,17.9a1.128,1.128,0,0,0,1,.614,1.1,1.1,0,0,0,.538-.142,1.192,1.192,0,0,0,.457-1.588,6.118,6.118,0,0,1-.866-3.075V11.953a9.258,9.258,0,0,0-2.544-6.414,8.647,8.647,0,0,0-5.162-2.655V1.172a1.134,1.134,0,1,0-2.266,0V2.888a9.084,9.084,0,0,0-7.705,9.065v1.758a7.226,7.226,0,0,1-1.242,3.808,14.518,14.518,0,0,0-1.85,4.8,3.6,3.6,0,0,0,.726,2.9,3.345,3.345,0,0,0,2.615,1.27h5.212a3.4,3.4,0,1,0,6.8,0H64.8a3.345,3.345,0,0,0,2.615-1.27A3.6,3.6,0,0,0,68.138,22.319Zm-11.93,5.337a1.154,1.154,0,0,1-1.133-1.172h2.266A1.154,1.154,0,0,1,56.208,27.656Z" transform="translate(-44.197)"/></g></g></g></svg>