<svg xmlns="http://www.w3.org/2000/svg" width="40" height="40" viewBox="0 0 40 40"><defs><style>.a{fill:none;}.b{stroke:#fff;stroke-width:0.5px;}</style></defs><g transform="translate(-1462 -272)"><rect class="a" width="40" height="40" transform="translate(1462 272)"/><path class="b" d="M0,14.667A14.667,14.667,0,1,0,14.667,0,14.683,14.683,0,0,0,0,14.667Zm26.955,0A12.282,12.282,0,0,1,6.863,24.152L24.152,6.863A12.232,12.232,0,0,1,26.955,14.667ZM14.667,2.378a12.232,12.232,0,0,1,7.8,2.8L5.181,22.47A12.282,12.282,0,0,1,14.667,2.378Z" transform="translate(1467.333 277.333)"/></g></svg>