<svg xmlns="http://www.w3.org/2000/svg" width="80" height="80" viewBox="0 0 80 80"><path d="M40,0A40,40,0,1,0,80,40,39.978,39.978,0,0,0,40,0Zm0,74.667A34.667,34.667,0,1,1,74.667,40,34.706,34.706,0,0,1,40,74.667Z"/><g transform="translate(18.132 24.582)"><path d="M158.445,157.708a2.656,2.656,0,0,0-3.756,0l-23.646,23.646-11.022-11.021a2.656,2.656,0,0,0-3.756,3.756l12.9,12.9a2.657,2.657,0,0,0,3.756,0l25.524-25.524A2.656,2.656,0,0,0,158.445,157.708Z" transform="translate(-115.487 -156.93)"/></g></svg>