<svg xmlns="http://www.w3.org/2000/svg" width="17" height="17" viewBox="0 0 17 17"><defs><style>.a{fill:none;}.b{fill:#d4b86c;}</style></defs><g transform="translate(-1156 -316)"><rect class="a" width="17" height="17" transform="translate(1156 316)"/><g transform="translate(1158 318)"><g transform="translate(2.786)"><path class="b" d="M102.864,0a.464.464,0,0,0-.464.464v.929h.929V.464A.464.464,0,0,0,102.864,0Z" transform="translate(-102.4)"/></g><g transform="translate(9.286)"><path class="b" d="M341.8,0a.464.464,0,0,0-.464.464v.929h.929V.464A.464.464,0,0,0,341.8,0Z" transform="translate(-341.333)"/></g><g transform="translate(0 1.393)"><path class="b" d="M11.607,51.2H10.214v1.857a.464.464,0,1,1-.929,0V51.2H3.714v1.857a.464.464,0,1,1-.929,0V51.2H1.393A1.393,1.393,0,0,0,0,52.593v8.821a1.393,1.393,0,0,0,1.393,1.393H11.607A1.393,1.393,0,0,0,13,61.414V52.593A1.393,1.393,0,0,0,11.607,51.2Zm.464,10.214a.464.464,0,0,1-.464.464H1.393a.464.464,0,0,1-.464-.464V55.379H12.071Z" transform="translate(0 -51.2)"/></g><g transform="translate(3.25 6.5)"><path class="b" d="M125.827,239.074a.464.464,0,0,0-.657,0l-3.386,3.386-1.529-1.529a.464.464,0,0,0-.656.657l1.857,1.857a.464.464,0,0,0,.656,0l3.714-3.714A.464.464,0,0,0,125.827,239.074Z" transform="translate(-119.463 -238.938)"/></g></g></g></svg>