<svg xmlns="http://www.w3.org/2000/svg" width="32" height="32" viewBox="0 0 32 32"><defs><style>.a{fill:#dd4b39;}</style></defs><path class="a" d="M0,0V32H32V0ZM18.655,17.346A6.4,6.4,0,0,1,11.958,23a7.06,7.06,0,1,1,0-14.12A6.7,6.7,0,0,1,16.7,10.723L14.673,12.75a3.726,3.726,0,0,0-2.716-1.06A4.239,4.239,0,0,0,7.8,15.941a4.19,4.19,0,0,0,4.156,4.2,3.549,3.549,0,0,0,3.8-2.792h-3.8V14.511h6.68a8.274,8.274,0,0,1,.121,1.43A9.318,9.318,0,0,1,18.655,17.346Zm8.479-.879H24.659V18.94H22.9V16.467H20.428V14.709H22.9V12.235h1.757v2.474h2.474Z"/></svg>