<svg xmlns="http://www.w3.org/2000/svg" width="32" height="32" viewBox="0 0 32 32"><defs><style>.a{fill:#0084b1;}.b{fill:#fff;}</style></defs><rect class="a" width="32" height="32"/><g transform="translate(4.745 4.771)"><path class="b" d="M71.565,69.215a2.7,2.7,0,1,1-2.718,2.7A2.711,2.711,0,0,1,71.565,69.215Z" transform="translate(-68.847 -69.215)"/><path class="b" d="M78.11,189.662H74.945a.744.744,0,0,1-.744-.744v-13.5a.744.744,0,0,1,.744-.744H78.11a.744.744,0,0,1,.744.744v13.5A.744.744,0,0,1,78.11,189.662Z" transform="translate(-73.822 -167.207)"/><path class="b" d="M196.048,174.388a5.126,5.126,0,0,0-5.126-5.126h-.812a4.559,4.559,0,0,0-3.989,2.354l-.042-.005v-1.658a.309.309,0,0,0-.309-.309h-3.949a.309.309,0,0,0-.309.309v14.374a.309.309,0,0,0,.309.309h4.035a.309.309,0,0,0,.309-.309v-8.3a2.632,2.632,0,0,1,2.58-2.643,2.61,2.61,0,0,1,2.64,2.61v8.338a.309.309,0,0,0,.309.309h4.045a.309.309,0,0,0,.309-.309v-9.942Z" transform="translate(-173.538 -162.181)"/></g></svg>