<svg xmlns="http://www.w3.org/2000/svg" width="9" height="13" viewBox="0 0 9 13"><defs><style>.a{fill:#d4b86c;}</style></defs><g transform="translate(-85.333)"><g transform="translate(85.333)"><path class="a" d="M89.833,0a4.424,4.424,0,0,0-4.5,4.333,4.215,4.215,0,0,0,.54,2.059l3.714,6.468a.287.287,0,0,0,.492,0l3.715-6.47a4.214,4.214,0,0,0,.539-2.057A4.424,4.424,0,0,0,89.833,0Zm0,6.5a2.212,2.212,0,0,1-2.25-2.167,2.252,2.252,0,0,1,4.5,0A2.212,2.212,0,0,1,89.833,6.5Z" transform="translate(-85.333)"/></g></g></svg>