<svg xmlns="http://www.w3.org/2000/svg" width="17" height="17" viewBox="0 0 17 17"><defs><style>.a{fill:none;}.b{fill:#d4b86c;}</style></defs><g transform="translate(-680 -355)"><rect class="a" width="17" height="17" transform="translate(680 355)"/><g transform="translate(682 357)"><g transform="translate(0)"><path class="b" d="M11.1,1.9A6.5,6.5,0,0,0,1.9,11.1,6.5,6.5,0,0,0,11.1,1.9ZM6.908,9.329H6.881v.843a.381.381,0,0,1-.762,0V9.329H5.276a.381.381,0,0,1,0-.762H6.908a.843.843,0,0,0,0-1.686H6.092a1.6,1.6,0,0,1,0-3.209h.027V2.829a.381.381,0,0,1,.762,0v.843h.843a.381.381,0,0,1,0,.762H6.092a.843.843,0,0,0,0,1.686h.816a1.6,1.6,0,0,1,0,3.209Z" transform="translate(0)"/></g></g></g></svg>