<svg xmlns="http://www.w3.org/2000/svg" width="24" height="24" viewBox="0 0 24 24"><defs><style>.a{fill:none;}.b{fill:#fff;stroke:#fff;stroke-width:0.3px;}</style></defs><g transform="translate(-1620 -570)"><rect class="a" width="24" height="24" transform="translate(1620 570)"/><g transform="translate(1623 572.931)"><g transform="translate(0 0.07)"><g transform="translate(0 0)"><path class="b" d="M15.368,2.7a9,9,0,1,0,0,12.731A9.014,9.014,0,0,0,15.368,2.7Zm-.986,11.745a7.608,7.608,0,1,1,0-10.759A7.617,7.617,0,0,1,14.382,14.446Z" transform="translate(0 -0.07)"/></g></g><g transform="translate(5.879 5.861)"><path class="b" d="M173.364,169.946l-1.974-1.971L173.364,166a.7.7,0,0,0-.986-.987L170.4,166.99l-1.975-1.973a.7.7,0,0,0-.986.987l1.974,1.971-1.974,1.971a.7.7,0,0,0,.986.987l1.975-1.973,1.975,1.973a.7.7,0,1,0,.986-.987Z" transform="translate(-167.236 -164.813)"/></g></g></g></svg>