<svg xmlns="http://www.w3.org/2000/svg" width="20.339" height="12.3" viewBox="0 0 20.339 12.3"><defs><style>.a{stroke:#fff;stroke-width:0.3px;}</style></defs><g transform="translate(0.169 -92.685)"><g transform="translate(0 92.835)"><g transform="translate(0 0)"><path class="a" d="M19.873,98.469c-.179-.23-4.436-5.634-9.873-5.634S.305,98.239.127,98.469a.592.592,0,0,0,0,.733c.178.23,4.436,5.634,9.873,5.634s9.694-5.4,9.873-5.634A.591.591,0,0,0,19.873,98.469ZM10,103.594c-4.005,0-7.474-3.587-8.5-4.759,1.026-1.174,4.487-4.758,8.5-4.758s7.473,3.586,8.5,4.759C17.475,100.009,14.014,103.594,10,103.594Z" transform="translate(0 -92.835)"/></g></g><g transform="translate(6.088 94.923)"><g transform="translate(0 0)"><path class="a" d="M158.634,154.725a3.912,3.912,0,1,0,3.912,3.912A3.916,3.916,0,0,0,158.634,154.725Zm0,6.519a2.608,2.608,0,1,1,2.608-2.608A2.611,2.611,0,0,1,158.634,161.244Z" transform="translate(-154.722 -154.725)"/></g></g></g></svg>