<svg xmlns="http://www.w3.org/2000/svg" width="48" height="48" viewBox="0 0 48 48"><defs><style>.a{fill:#d4b86c;}.b{fill:#fff;}</style></defs><g transform="translate(-1666 -904)"><rect class="a" width="48" height="48" transform="translate(1666 904)"/><path class="b" d="M-7131.732,17801.961a.785.785,0,0,1-.519-.746v-6.387l-8.243-2.959a.786.786,0,0,1-.5-.684.8.8,0,0,1,.4-.76l22.45-12.309a.745.745,0,0,1,.257-.1l.017,0,.018,0,.028,0h0a.658.658,0,0,1,.175,0h0l.027,0a.015.015,0,0,0,.009,0l.012,0a.741.741,0,0,1,.359.2.79.79,0,0,1,.237.52v.02a.111.111,0,0,0,0,.014.815.815,0,0,1-.007.139l-2.752,19.426a.781.781,0,0,1-.353.555.675.675,0,0,1-.389.115.727.727,0,0,1-.242-.039l-6.574-2.361-3.581,5.082a.741.741,0,0,1-.6.322A.674.674,0,0,1-7131.732,17801.961Zm.983-3.133,1.947-2.764-1.947-.7Zm9.641-1.67,2.265-16-11.377,12.736Zm-17.245-6.184,6.576,2.357,10.446-11.691Z" transform="translate(8819 -16862)"/></g></svg>