<svg xmlns="http://www.w3.org/2000/svg" width="48" height="48" viewBox="0 0 48 48"><defs><style>.a{fill:none;}.b{fill:#707070;}</style></defs><g transform="translate(-1480 -26)"><rect class="a" width="48" height="48" transform="translate(1480 26)"/><g transform="translate(1489 23.634)"><g transform="translate(0 11.866)"><path class="b" d="M29.464,21.917a2.879,2.879,0,0,0-1.5-.693l-6.838-1-3.058-6.236a2.888,2.888,0,0,0-5.195,0L9.819,20.224l-6.838,1a2.879,2.879,0,0,0-1.5.693A2.925,2.925,0,0,0,1.376,26.2l4.948,4.854L5.156,37.9a2.918,2.918,0,0,0,.637,2.369,2.878,2.878,0,0,0,3.565.7l6.116-3.236,6.116,3.236a2.9,2.9,0,0,0,4.2-3.073l-1.168-6.854L29.574,26.2a2.93,2.93,0,0,0-.109-4.279Zm-1.381,2.741-5.465,5.36a.77.77,0,0,0-.219.679l1.29,7.569a.767.767,0,0,1-.751.9.755.755,0,0,1-.355-.09L15.83,35.5a.758.758,0,0,0-.709,0L8.366,39.074a.755.755,0,0,1-.355.09.767.767,0,0,1-.751-.9L8.55,30.7a.77.77,0,0,0-.219-.679l-5.465-5.36a.768.768,0,0,1,.422-1.308l7.552-1.1a.763.763,0,0,0,.574-.42l3.377-6.887a.76.76,0,0,1,1.367,0l3.377,6.887a.763.763,0,0,0,.574.42l7.552,1.1A.768.768,0,0,1,28.084,24.657Z" transform="translate(-0.475 -12.338)"/><path class="b" d="M22.464,40.866a2.919,2.919,0,0,1-1.36-.339L15,37.3l-6.1,3.23a2.927,2.927,0,0,1-4.239-3.1l1.166-6.841L.883,25.742a2.955,2.955,0,0,1,.11-4.315,2.9,2.9,0,0,1,1.509-.7l6.825-1L12.38,13.5a2.913,2.913,0,0,1,5.24,0l3.052,6.224,6.825,1a2.9,2.9,0,0,1,1.509.7,2.951,2.951,0,0,1,.11,4.316l-4.939,4.845,1.166,6.841a2.943,2.943,0,0,1-.643,2.39A2.914,2.914,0,0,1,22.464,40.866ZM15,37.24l.012.006,6.116,3.236a2.877,2.877,0,0,0,4.167-3.047l-1.17-6.867,4.958-4.863a2.905,2.905,0,0,0-.108-4.242,2.854,2.854,0,0,0-1.483-.687l-6.851-1-.006-.012-3.058-6.236a2.863,2.863,0,0,0-5.15,0L9.361,19.775l-.013,0-6.838,1a2.855,2.855,0,0,0-1.483.687,2.9,2.9,0,0,0-.108,4.242l4.958,4.863,0,.013L4.705,37.436a2.893,2.893,0,0,0,.632,2.349,2.853,2.853,0,0,0,3.535.7Zm7.464,1.478a.776.776,0,0,1-.366-.093l-6.755-3.574a.746.746,0,0,0-.686,0L7.9,38.625a.776.776,0,0,1-.366.093.789.789,0,0,1-.6-.286.78.78,0,0,1-.171-.642l1.29-7.569a.745.745,0,0,0-.212-.657L2.373,24.2a.793.793,0,0,1,.436-1.351l7.552-1.1a.738.738,0,0,0,.555-.406l3.377-6.887a.785.785,0,0,1,1.412,0l3.377,6.887a.738.738,0,0,0,.555.406l7.552,1.1a.793.793,0,0,1,.436,1.351l-5.465,5.361a.745.745,0,0,0-.212.657l1.29,7.569a.78.78,0,0,1-.171.642A.789.789,0,0,1,22.464,38.718ZM15,34.916a.786.786,0,0,1,.366.091l6.755,3.574a.728.728,0,0,0,.343.087.739.739,0,0,0,.567-.268.73.73,0,0,0,.16-.6L21.9,30.229a.8.8,0,0,1,.226-.7l5.465-5.361a.743.743,0,0,0-.409-1.266l-7.552-1.1a.788.788,0,0,1-.593-.433l-3.377-6.887a.735.735,0,0,0-1.322,0l-3.377,6.887a.787.787,0,0,1-.593.433L2.816,22.9a.743.743,0,0,0-.409,1.266l5.465,5.361a.8.8,0,0,1,.226.7L6.809,37.8a.73.73,0,0,0,.16.6.739.739,0,0,0,.567.268.728.728,0,0,0,.343-.087l6.755-3.574A.786.786,0,0,1,15,34.916Z" transform="translate(0 -11.866)"/></g></g></g></svg>