<svg xmlns="http://www.w3.org/2000/svg" width="24" height="24" viewBox="0 0 24 24"><defs><style>.a{fill:none;}.b{fill:#fff;stroke:#fff;stroke-width:0.3px;}</style></defs><g transform="translate(-1291 -306)"><rect class="a" width="24" height="24" transform="translate(1291 306)"/><g transform="translate(1294 309)"><path class="b" d="M9,18A9,9,0,1,0,0,9,9,9,0,0,0,9,18Zm7.56-9A7.56,7.56,0,1,1,9,1.44,7.569,7.569,0,0,1,16.56,9Z"/><path class="b" d="M99.913,74.518a1.411,1.411,0,0,0,.545.11,1.432,1.432,0,0,0,1.016-.422l3.239-3.24a1.44,1.44,0,0,0,0-2.037l-3.24-3.24a1.441,1.441,0,0,0-1.019-.422,1.384,1.384,0,0,0-.54.11,1.429,1.429,0,0,0-.877,1.33v6.48A1.43,1.43,0,0,0,99.913,74.518Zm.562-7.705v-.105l3.24,3.24-3.24,3.24Z" transform="translate(-92.48 -60.947)"/></g></g></svg>