<svg xmlns="http://www.w3.org/2000/svg" width="24" height="24" viewBox="0 0 24 24"><defs><style>.a{fill:none;}.b{fill:#fff;stroke:#fff;stroke-width:0.3px;}</style></defs><g transform="translate(-1291 -306)"><rect class="a" width="24" height="24" transform="translate(1291 306)"/><path class="b" d="M9,18a9,9,0,1,0-6.365-2.635A9.01,9.01,0,0,0,9,18Zm0-1.5a7.447,7.447,0,0,1-4.748-1.691L14.809,4.252A7.5,7.5,0,0,1,9,16.5Zm0-15a7.446,7.446,0,0,1,4.748,1.691L3.191,13.748A7.5,7.5,0,0,1,9,1.5Zm0,0" transform="translate(1294 309)"/></g></svg>