<svg xmlns="http://www.w3.org/2000/svg" width="48" height="48" viewBox="0 0 48 48"><defs><style>.a{fill:none;}</style></defs><g transform="translate(-1684 -26)"><rect class="a" width="48" height="48" transform="translate(1684 26)"/><path d="M26.906,0H1.094A1.094,1.094,0,0,0,0,1.094V26.906A1.094,1.094,0,0,0,1.094,28H26.906A1.094,1.094,0,0,0,28,26.906V1.094A1.094,1.094,0,0,0,26.906,0ZM25.813,25.813H2.188V2.188H25.813ZM4.477,7.5A1.094,1.094,0,0,1,6.023,5.956l.708.708L9.07,4.325a1.094,1.094,0,0,1,1.547,1.547L7.5,8.984a1.094,1.094,0,0,1-1.547,0Zm8.43-.848A1.094,1.094,0,0,1,14,5.561h8.75a1.094,1.094,0,1,1,0,2.187H14a1.094,1.094,0,0,1-1.094-1.094ZM4.477,22.194a1.094,1.094,0,1,1,1.547-1.547l.708.708L9.07,19.016a1.094,1.094,0,0,1,1.547,1.547L7.5,23.675a1.094,1.094,0,0,1-1.547,0Zm8.43-.848A1.094,1.094,0,0,1,14,20.252h8.75a1.094,1.094,0,0,1,0,2.188H14a1.094,1.094,0,0,1-1.094-1.094Zm-8.43-6.5A1.094,1.094,0,0,1,6.023,13.3l.708.708L9.07,11.67a1.094,1.094,0,0,1,1.547,1.547L7.5,16.33a1.094,1.094,0,0,1-1.547,0ZM12.906,14A1.094,1.094,0,0,1,14,12.906h8.75a1.094,1.094,0,1,1,0,2.188H14A1.094,1.094,0,0,1,12.906,14Zm0,0" transform="translate(1694 36)"/></g></svg>