<svg xmlns="http://www.w3.org/2000/svg" width="24" height="24" viewBox="0 0 24 24"><defs><style>.a{fill:none;}.b{fill:#fff;stroke:#fff;}</style></defs><g transform="translate(-1643 -457)"><rect class="a" width="24" height="24" transform="translate(1643 457)"/><path class="b" d="M7.189,5.266V3.85h.223a.974.974,0,0,0,1.006-.925v-1A.975.975,0,0,0,7.412,1H-4.576a.975.975,0,0,0-1.006.926v1a.974.974,0,0,0,1.006.925h.223V5.266a2.146,2.146,0,0,0,.886,1.721L.554,9.994l-3.941,2.86A2.143,2.143,0,0,0-4.3,14.6V16.15h-.277a.974.974,0,0,0-1.006.925v1A.975.975,0,0,0-4.576,19H7.413a.975.975,0,0,0,1.006-.926v-1a.974.974,0,0,0-1.006-.925h-.17V14.606a2.174,2.174,0,0,0-.933-1.754L2.289,9.99l4.015-3a2.145,2.145,0,0,0,.886-1.721ZM-4.513,2H7.35v.85H-4.513ZM7.35,18H-4.513v-.85h.656c.031,0,.062.008.094.008s.063-.008.094-.008H6.607c.031,0,.062.008.094.008s.063-.008.094-.008H7.35ZM6.174,14.606V16.15h-9.4V14.6a1.171,1.171,0,0,1,.5-.951l4.153-3.014,4.242,3.017a1.19,1.19,0,0,1,.511.958Zm-.539-8.4L1.419,9.36-2.8,6.206a1.173,1.173,0,0,1-.486-.94V3.85h9.4V5.266a1.173,1.173,0,0,1-.485.94Zm0,0" transform="translate(1653.582 459)"/></g></svg>