<svg xmlns="http://www.w3.org/2000/svg" width="20.4" height="18.4" viewBox="0 0 20.4 18.4"><defs><style>.a{fill:#a3a7ab;stroke:#a3a7ab;stroke-width:0.4px;}</style></defs><g transform="translate(0.2 0.2)"><g transform="translate(6.962 12.829)"><path class="a" d="M189.529,332.734h-4.772a.653.653,0,0,0-.652.652v1.464a.653.653,0,0,0,.652.652h4.772a.653.653,0,0,0,.652-.652v-1.464A.653.653,0,0,0,189.529,332.734Zm-.186,1.93h-4.4v-1.091h4.4Z" transform="translate(-184.105 -332.734)"/></g><path class="a" d="M19.8,65.493l.006,0L16.9,58.84a1.359,1.359,0,0,0-1.224-.871h-.552v-.618a.421.421,0,0,0-.388-.449H5.261a.421.421,0,0,0-.388.449v.618H4.321A1.359,1.359,0,0,0,3.1,58.84L.19,65.49l.006,0a1.749,1.749,0,0,0-.2.813v7.025A1.478,1.478,0,0,0,1.358,74.9H18.643A1.478,1.478,0,0,0,20,73.331V66.306A1.749,1.749,0,0,0,19.8,65.493Zm-4.677-6.528h.552a.506.506,0,0,1,.456.325l2.38,5.445H16.9V63.06a.421.421,0,0,0-.388-.449H16.03V60.205a.421.421,0,0,0-.388-.449h-.515Zm.995,4.543v1.227H14.076a.9.9,0,0,0-.815.609L12.7,66.778a.033.033,0,0,1-.03.022H7.327a.033.033,0,0,1-.03-.022l-.558-1.433a.9.9,0,0,0-.815-.609H3.879V63.508ZM5.649,57.8h8.7v1.958h-8.7Zm9.606,2.855v1.958H4.746V60.654ZM3.865,59.29a.506.506,0,0,1,.456-.325h.552v.791H4.358a.421.421,0,0,0-.388.449v2.406H3.491a.421.421,0,0,0-.388.449v1.676H1.485ZM18.643,73.905H1.358a.54.54,0,0,1-.5-.574V66.306a.54.54,0,0,1,.5-.574H5.924a.033.033,0,0,1,.03.022l.558,1.433a.9.9,0,0,0,.815.609h5.346a.9.9,0,0,0,.815-.609l.558-1.433h0a.033.033,0,0,1,.03-.022h4.566a.54.54,0,0,1,.5.574v7.025h0A.54.54,0,0,1,18.643,73.905Z" transform="translate(0 -56.902)"/></g></svg>