<svg xmlns="http://www.w3.org/2000/svg" width="29" height="29" viewBox="0 0 29 29"><defs><style>.a{fill:none;}.b{fill:#a3a7ab;}</style></defs><g transform="translate(-1811 -110)"><rect class="a" width="29" height="29" transform="translate(1811 110)"/><g transform="translate(1811 110)"><g transform="translate(6.214)"><path class="b" d="M103.436,0A1.036,1.036,0,0,0,102.4,1.036V3.107h2.071V1.036A1.036,1.036,0,0,0,103.436,0Z" transform="translate(-102.4)"/></g><g transform="translate(20.714)"><path class="b" d="M342.369,0a1.036,1.036,0,0,0-1.036,1.036V3.107H343.4V1.036A1.036,1.036,0,0,0,342.369,0Z" transform="translate(-341.333)"/></g><g transform="translate(0 3.107)"><path class="b" d="M25.893,51.2H22.786v4.143a1.036,1.036,0,0,1-2.071,0V51.2H8.286v4.143a1.036,1.036,0,0,1-2.071,0V51.2H3.107A3.107,3.107,0,0,0,0,54.307V73.986a3.107,3.107,0,0,0,3.107,3.107H25.893A3.107,3.107,0,0,0,29,73.986V54.307A3.107,3.107,0,0,0,25.893,51.2Zm1.036,22.786a1.036,1.036,0,0,1-1.036,1.036H3.107a1.036,1.036,0,0,1-1.036-1.036V60.521H26.929Z" transform="translate(0 -51.2)"/></g><g transform="translate(7.25 14.5)"><path class="b" d="M133.66,239.242a1.036,1.036,0,0,0-1.465,0l-7.553,7.554-3.411-3.411a1.036,1.036,0,0,0-1.464,1.466l4.143,4.143a1.036,1.036,0,0,0,1.464,0l8.286-8.286A1.036,1.036,0,0,0,133.66,239.242Z" transform="translate(-119.463 -238.938)"/></g></g></g></svg>