<svg xmlns="http://www.w3.org/2000/svg" width="24" height="24" viewBox="0 0 24 24"><defs><style>.a{fill:#142a33;}</style></defs><g transform="translate(0 0)"><g transform="translate(0 0)"><path class="a" d="M20.485,3.515A12,12,0,0,0,3.515,20.485,12,12,0,1,0,20.485,3.515ZM12,22.594A10.594,10.594,0,1,1,22.594,12,10.606,10.606,0,0,1,12,22.594Z" transform="translate(0 0)"/></g></g><g transform="translate(6.087 7.962)"><path class="a" d="M140.92,169.672a.7.7,0,0,0-.99,0l-6.181,6.181L130.5,172.6a.7.7,0,1,0-.99.99l3.749,3.749a.7.7,0,0,0,.99,0l6.676-6.676A.7.7,0,0,0,140.92,169.672Z" transform="translate(-129.301 -169.467)"/></g></svg>