<svg xmlns="http://www.w3.org/2000/svg" width="34" height="34" viewBox="0 0 34 34"><defs><style>.a{fill:none;}.b{fill:#a3a7ab;stroke:#a3a7ab;stroke-width:0.5px;}</style></defs><g transform="translate(-30 -422)"><g transform="translate(0 153)"><rect class="a" width="34" height="34" transform="translate(30 269)"/></g><g transform="translate(26.8 334.75)"><g transform="translate(6.2 92.25)"><path class="b" d="M29.365,102.81a4.342,4.342,0,0,0,1.805-3.53,4.235,4.235,0,1,0-8.468,0,4.322,4.322,0,0,0,1.805,3.53,7.307,7.307,0,0,0-2.5,1.5A9.441,9.441,0,0,0,18.57,102.4a5.5,5.5,0,0,0,2.59-4.682,5.365,5.365,0,1,0-10.728,0,5.485,5.485,0,0,0,2.59,4.682c-2,.225-7.109,3.379-6.81,9.364v.509a3.94,3.94,0,0,0,3.9,3.979H21.491a3.94,3.94,0,0,0,3.9-3.979v-.509a10.249,10.249,0,0,0-.081-1.264H32.3a1.654,1.654,0,0,0,1.886-2.023A6.771,6.771,0,0,0,29.365,102.81Zm-5.489-3.538a3.061,3.061,0,1,1,3.119,3.119h-.117A3.087,3.087,0,0,1,23.876,99.273ZM11.592,97.717a4.191,4.191,0,1,1,4.432,4.263H15.54A4.243,4.243,0,0,1,11.592,97.717Zm12.614,14.554a2.761,2.761,0,0,1-2.73,2.782H10.1a2.761,2.761,0,0,1-2.73-2.782v-.509a8.517,8.517,0,0,1,8.167-8.578c.081.007.169.007.249.007s.169,0,.249-.007a8.517,8.517,0,0,1,8.167,8.578Zm.873-2.977a9.851,9.851,0,0,0-2.223-4.158,6.167,6.167,0,0,1,4.036-1.548h.088a6.424,6.424,0,0,1,5.73,3.923s1.226,1.949-1.432,1.783Z" transform="translate(-6.2 -92.25)"/></g></g></g></svg>