<svg xmlns="http://www.w3.org/2000/svg" width="34" height="34" viewBox="0 0 34 34"><defs><style>.a{fill:none;}.b{fill:#a3a7ab;stroke:#a3a7ab;stroke-width:0.3px;}</style></defs><g transform="translate(-30 -217)"><g transform="translate(0 -52)"><rect class="a" width="34" height="34" transform="translate(30 269)"/></g><g transform="translate(35 221.992)"><path class="b" d="M23.79,11.487,13.2.511,13.193.5a1.689,1.689,0,0,0-2.387,0L10.8.511.21,11.487a.75.75,0,1,0,1.08,1.041l.585-.607v9.93a2.159,2.159,0,0,0,2.156,2.156H19.969a2.159,2.159,0,0,0,2.156-2.156v-9.93l.585.607a.75.75,0,1,0,1.08-1.041ZM20.625,21.852a.657.657,0,0,1-.656.656H4.031a.657.657,0,0,1-.656-.656V10.367l8.5-8.807a.188.188,0,0,1,.259,0l8.5,8.807Z" transform="translate(0)"/></g></g></svg>