<svg xmlns="http://www.w3.org/2000/svg" width="24.001" height="24" viewBox="0 0 24.001 24"><defs><style>.a{fill:#142a33;}</style></defs><g transform="translate(0 0.001)"><path class="a" d="M17.251,105.29H2.75A2.753,2.753,0,0,1,0,102.54v-14.5a2.753,2.753,0,0,1,2.75-2.75h8.5a.75.75,0,0,1,0,1.5H2.75a1.252,1.252,0,0,0-1.25,1.25v14.5a1.252,1.252,0,0,0,1.25,1.25h14.5a1.252,1.252,0,0,0,1.25-1.25v-8.5a.75.75,0,0,1,1.5,0v8.5A2.753,2.753,0,0,1,17.251,105.29Zm0,0" transform="translate(0 -81.292)"/><path class="a" d="M171.9,15.976a.75.75,0,0,1-.735-.9l.707-3.536a.748.748,0,0,1,.2-.383L182.43.8a2.749,2.749,0,1,1,3.888,3.888L175.961,15.049a.745.745,0,0,1-.383.2l-3.535.707a.739.739,0,0,1-.148.015Zm3.536-1.457h0Zm-2.138-2.459-.441,2.21,2.209-.442,10.2-10.2a1.25,1.25,0,0,0-1.768-1.768Zm0,0" transform="translate(-163.122 0)"/><path class="a" d="M380.586,46.94a.744.744,0,0,1-.53-.22l-2.828-2.829a.75.75,0,1,1,1.061-1.061l2.828,2.829a.751.751,0,0,1-.531,1.281Zm0,0" transform="translate(-359.334 -40.614)"/></g></svg>