<svg xmlns="http://www.w3.org/2000/svg" width="34" height="34" viewBox="0 0 34 34"><defs><style>.a{fill:none;}.b{fill:#a3a7ab;}</style></defs><g transform="translate(-30 -420)"><rect class="a" width="34" height="34" transform="translate(30 420)"/><path class="b" d="M15.515,11.344A6.33,6.33,0,1,0,22,17.672,6.415,6.415,0,0,0,15.515,11.344Zm0,10.781a4.455,4.455,0,1,1,4.563-4.453A4.514,4.514,0,0,1,15.515,22.125ZM18.4,17.672a.949.949,0,0,1-.961.938h-.961v.938a.961.961,0,0,1-1.921,0v-.938h-.961a.938.938,0,1,1,0-1.875h.961V15.8a.961.961,0,0,1,1.921,0v.938h.961A.949.949,0,0,1,18.4,17.672ZM8.646,23.062A.949.949,0,0,1,7.686,24H3.843A3.8,3.8,0,0,1,0,20.25V6.79A3.6,3.6,0,0,1,1.089,4.208L4.261,1.085A3.83,3.83,0,0,1,6.93,0h8.724A3.8,3.8,0,0,1,19.5,3.75V8.718a.961.961,0,0,1-1.921,0V3.75a1.9,1.9,0,0,0-1.921-1.875H6.93a1.871,1.871,0,0,0-1.3.53L2.454,5.528a1.788,1.788,0,0,0-.367.518H4.755A1.426,1.426,0,0,0,6.2,4.64a.961.961,0,0,1,1.921,0A3.326,3.326,0,0,1,4.755,7.922H1.921V20.25a1.9,1.9,0,0,0,1.921,1.875H7.686a.949.949,0,0,1,.961.938Zm0,0" transform="translate(36 425)"/></g></svg>