<svg xmlns="http://www.w3.org/2000/svg" width="34" height="34" viewBox="0 0 34 34"><defs><style>.a{fill:none;}.b{fill:#a3a7ab;}</style></defs><g transform="translate(-40 -950)"><g transform="translate(10 681)"><rect class="a" width="34" height="34" transform="translate(30 269)"/></g><g transform="translate(46 955.15)"><g transform="translate(0 0.85)"><path class="b" d="M11.015,21.017H2.754a.918.918,0,0,1-.918-.917V3.6a.918.918,0,0,1,.918-.917h8.261a.917.917,0,1,0,0-1.833H2.754A2.755,2.755,0,0,0,0,3.6V20.1a2.755,2.755,0,0,0,2.754,2.75h8.261a.917.917,0,1,0,0-1.833Z" transform="translate(0 -0.85)"/></g><g transform="translate(7.241 5.425)"><path class="b" d="M184.586,112.936l-5.581-5.507a.918.918,0,1,0-1.289,1.307l3.988,3.936H171.018a.918.918,0,0,0,0,1.836H181.7l-3.988,3.936a.918.918,0,1,0,1.289,1.307l5.581-5.507a.917.917,0,0,0,0-1.307Z" transform="translate(-170.1 -107.165)"/></g></g></g></svg>