<svg xmlns="http://www.w3.org/2000/svg" width="34" height="34" viewBox="0 0 34 34"><defs><style>.a{fill:none;}.b{fill:#a3a7ab;}</style></defs><g transform="translate(-30 -492)"><g transform="translate(0 223)"><rect class="a" width="34" height="34" transform="translate(30 269)"/></g><g transform="translate(-2.385 497)"><g transform="translate(39.385)"><path class="b" d="M52.948,11.128a6.179,6.179,0,0,0,2.5-4.975,6.061,6.061,0,1,0-12.121,0,6.179,6.179,0,0,0,2.5,4.975,10.166,10.166,0,0,0-6.437,9.487A3.363,3.363,0,0,0,42.718,24H56.052a3.363,3.363,0,0,0,3.333-3.385A10.166,10.166,0,0,0,52.948,11.128ZM45.143,6.154a4.243,4.243,0,1,1,4.242,4.308A4.28,4.28,0,0,1,45.143,6.154Zm10.909,16H42.718A1.529,1.529,0,0,1,41.2,20.615a8.183,8.183,0,1,1,16.364,0A1.529,1.529,0,0,1,56.052,22.154Z" transform="translate(-39.385)"/></g></g></g></svg>