<svg xmlns="http://www.w3.org/2000/svg" width="23.999" height="23.999" viewBox="0 0 23.999 23.999"><defs><style>.a{fill:#459290;}</style></defs><g transform="translate(0 -0.001)"><g transform="translate(0 0.001)"><path class="a" d="M23.794.207a.7.7,0,0,0-.758-.156L.442,9.088A.7.7,0,0,0,.4,10.374l8.909,4.321L13.627,23.6a.7.7,0,0,0,.632.4h.025a.7.7,0,0,0,.628-.442L23.949.965A.7.7,0,0,0,23.794.207ZM2.442,9.8,20.377,2.629,9.689,13.317ZM14.2,21.558l-3.515-7.247L21.372,3.623Z" transform="translate(0 -0.001)"/></g></g></svg>