<svg xmlns="http://www.w3.org/2000/svg" width="22" height="22" viewBox="0 0 22 22"><defs><style>.a{fill:none;}.b{fill:#a3a7ab;}</style></defs><g transform="translate(-1668 -306)"><rect class="a" width="22" height="22" transform="translate(1668 306)"/><path class="b" d="M9,18a9,9,0,1,0-6.365-2.635A9.01,9.01,0,0,0,9,18Zm0-1.5a7.447,7.447,0,0,1-4.748-1.691L14.809,4.252A7.5,7.5,0,0,1,9,16.5Zm0-15a7.446,7.446,0,0,1,4.748,1.691L3.191,13.748A7.5,7.5,0,0,1,9,1.5Zm0,0" transform="translate(1670 308)"/></g></svg>